<svg xmlns="http://www.w3.org/2000/svg" viewBox="0 0 600 600">
  <defs>
    <linearGradient id="g" x1="0" y1="0" x2="1" y2="1">
      <stop offset="0%" stop-color="#ffd54f"/>
      <stop offset="100%" stop-color="#ef6c00"/>
    </linearGradient>
    <radialGradient id="glow" cx="0.7" cy="0.3" r="0.7">
      <stop offset="0%" stop-color="#ffffff" stop-opacity="0.2"/>
      <stop offset="100%" stop-color="#ffffff" stop-opacity="0"/>
    </radialGradient>
  </defs>
  <rect width="600" height="600" fill="url(#g)"/>
  <rect width="600" height="600" fill="url(#glow)"/>
  <g fill="#ffffff" opacity="0.97" transform="translate(180 240)">
    <rect x="0" y="40" width="220" height="160" rx="14" fill="#ffffff"/>
    <rect x="0" y="40" width="220" height="160" rx="14" fill="#ffe082" opacity="0.4"/>
    <rect x="78" y="0" width="64" height="50" rx="8" fill="none" stroke="#ffffff" stroke-width="8"/>
    <rect x="10" y="80" width="200" height="6" rx="3" fill="#ef6c00" opacity="0.7"/>
    <rect x="10" y="150" width="200" height="6" rx="3" fill="#ef6c00" opacity="0.7"/>
    <rect x="40" y="100" width="50" height="40" rx="6" fill="#ffe082" opacity="0.85"/>
    <text x="80" y="128" font-family="Inter, sans-serif" font-size="14" font-weight="800" fill="#ef6c00" opacity="0.7">KR</text>
  </g>
  <g fill="none" stroke="#ffffff" stroke-width="5" stroke-linecap="round" opacity="0.9">
    <path d="M70 140 Q200 80 380 130 Q500 160 540 220" stroke-dasharray="4 12"/>
  </g>
  <g transform="translate(490 90)" opacity="0.95">
    <path d="M0 30 L40 0 L60 5 L30 35 L40 55 L20 60 L10 50 L0 60 L-10 50 L0 40 Z" fill="#ffffff"/>
  </g>
  <g transform="translate(110 130)" fill="#ffffff" opacity="0.85">
    <circle r="10"/>
    <circle r="20" fill="none" stroke="#ffffff" stroke-width="3"/>
  </g>
  <g fill="#ffffff" opacity="0.55">
    <circle cx="80" cy="500" r="5"/>
    <circle cx="500" cy="490" r="6"/>
    <circle cx="440" cy="520" r="3"/>
  </g>
</svg>
