<svg xmlns="http://www.w3.org/2000/svg" viewBox="0 0 600 600">
  <defs>
    <linearGradient id="g" x1="0" y1="0" x2="1" y2="1">
      <stop offset="0%" stop-color="#7cc47e"/>
      <stop offset="100%" stop-color="#2e7d32"/>
    </linearGradient>
    <radialGradient id="glow" cx="0.7" cy="0.3" r="0.7">
      <stop offset="0%" stop-color="#ffffff" stop-opacity="0.2"/>
      <stop offset="100%" stop-color="#ffffff" stop-opacity="0"/>
    </radialGradient>
    <linearGradient id="tooth" x1="0" y1="0" x2="0" y2="1">
      <stop offset="0%" stop-color="#ffffff"/>
      <stop offset="100%" stop-color="#e8f5e9"/>
    </linearGradient>
  </defs>
  <rect width="600" height="600" fill="url(#g)"/>
  <rect width="600" height="600" fill="url(#glow)"/>
  <g transform="translate(300 320)">
    <path d="M-100 -130 C -140 -130 -150 -90 -130 -50 C -110 -10 -100 30 -100 70 C -100 110 -90 140 -70 140 C -50 140 -45 110 -40 80 C -36 60 -28 50 -20 50 C 8 50 12 60 16 80 C 22 110 26 140 50 140 C 80 140 95 100 100 60 C 105 20 120 -10 130 -50 C 145 -90 130 -130 90 -130 C 60 -130 35 -118 0 -118 C -35 -118 -60 -130 -100 -130 Z" fill="url(#tooth)"/>
    <path d="M-80 -100 Q-70 -90 -50 -90 Q-20 -88 0 -98" stroke="#a5d6a7" stroke-width="3" fill="none" stroke-linecap="round" opacity="0.5"/>
  </g>
  <g fill="#ffffff" opacity="0.85">
    <path d="M130 130 L138 154 L162 162 L138 170 L130 194 L122 170 L98 162 L122 154 Z"/>
    <path d="M470 200 L475 215 L490 220 L475 225 L470 240 L465 225 L450 220 L465 215 Z" opacity="0.85"/>
    <path d="M460 440 L466 458 L484 464 L466 470 L460 488 L454 470 L436 464 L454 458 Z" opacity="0.75"/>
  </g>
</svg>
