<svg xmlns="http://www.w3.org/2000/svg" viewBox="0 0 600 600">
  <defs>
    <linearGradient id="g" x1="0" y1="0" x2="1" y2="1">
      <stop offset="0%" stop-color="#ffb74d"/>
      <stop offset="100%" stop-color="#ef6c00"/>
    </linearGradient>
    <radialGradient id="glow" cx="0.7" cy="0.3" r="0.7">
      <stop offset="0%" stop-color="#ffffff" stop-opacity="0.2"/>
      <stop offset="100%" stop-color="#ffffff" stop-opacity="0"/>
    </radialGradient>
    <linearGradient id="drop" x1="0" y1="0" x2="0" y2="1">
      <stop offset="0%" stop-color="#ffffff" stop-opacity="0.95"/>
      <stop offset="100%" stop-color="#ffffff" stop-opacity="0.65"/>
    </linearGradient>
  </defs>
  <rect width="600" height="600" fill="url(#g)"/>
  <rect width="600" height="600" fill="url(#glow)"/>
  <g transform="translate(300 120)">
    <path d="M0 0 C 60 80 90 130 90 180 A 90 90 0 1 1 -90 180 C -90 130 -60 80 0 0 Z" fill="url(#drop)"/>
    <ellipse cx="-30" cy="180" rx="22" ry="40" fill="#ffffff" opacity="0.55"/>
  </g>
  <g fill="none" stroke="#ffffff" stroke-width="4" stroke-linecap="round" opacity="0.5">
    <circle cx="120" cy="120" r="14"/>
    <circle cx="490" cy="180" r="10"/>
    <circle cx="100" cy="440" r="18"/>
    <circle cx="500" cy="460" r="12"/>
    <circle cx="450" cy="380" r="6"/>
    <circle cx="180" cy="360" r="6"/>
  </g>
  <g transform="translate(300 460)" fill="#ffffff" opacity="0.7">
    <path d="M-50 0 Q-25 -16 0 0 Q25 16 50 0" stroke="#ffffff" stroke-width="4" fill="none" stroke-linecap="round"/>
  </g>
</svg>
