<svg xmlns="http://www.w3.org/2000/svg" viewBox="0 0 600 600">
  <defs>
    <linearGradient id="g" x1="0" y1="0" x2="1" y2="1">
      <stop offset="0%" stop-color="#f06292"/>
      <stop offset="100%" stop-color="#ad1457"/>
    </linearGradient>
    <radialGradient id="glow" cx="0.7" cy="0.3" r="0.7">
      <stop offset="0%" stop-color="#ffffff" stop-opacity="0.2"/>
      <stop offset="100%" stop-color="#ffffff" stop-opacity="0"/>
    </radialGradient>
  </defs>
  <rect width="600" height="600" fill="url(#g)"/>
  <rect width="600" height="600" fill="url(#glow)"/>
  <g fill="none" stroke="#ffffff" stroke-linecap="round" opacity="0.85">
    <path d="M120 50 Q150 200 90 360 Q60 460 130 540" stroke-width="6"/>
    <path d="M180 40 Q220 200 170 380 Q140 480 210 560" stroke-width="6" opacity="0.9"/>
    <path d="M250 30 Q300 200 240 400 Q210 500 280 580" stroke-width="6" opacity="0.95"/>
    <path d="M330 40 Q380 200 320 400 Q290 510 360 580" stroke-width="6"/>
    <path d="M400 30 Q450 200 390 400 Q360 510 430 580" stroke-width="6" opacity="0.9"/>
    <path d="M470 50 Q510 200 450 380 Q420 490 490 560" stroke-width="6" opacity="0.85"/>
    <path d="M540 70 Q570 200 520 360 Q500 450 560 530" stroke-width="6" opacity="0.7"/>
  </g>
  <g fill="#ffffff" opacity="0.65">
    <circle cx="120" cy="50" r="6"/>
    <circle cx="180" cy="40" r="6"/>
    <circle cx="250" cy="30" r="6"/>
    <circle cx="330" cy="40" r="6"/>
    <circle cx="400" cy="30" r="6"/>
    <circle cx="470" cy="50" r="6"/>
    <circle cx="540" cy="70" r="6"/>
  </g>
</svg>
