<svg xmlns="http://www.w3.org/2000/svg" viewBox="0 0 600 600">
  <defs>
    <linearGradient id="g" x1="0" y1="0" x2="1" y2="1">
      <stop offset="0%" stop-color="#4fc3f7"/>
      <stop offset="100%" stop-color="#0277bd"/>
    </linearGradient>
    <radialGradient id="glow" cx="0.7" cy="0.3" r="0.7">
      <stop offset="0%" stop-color="#ffffff" stop-opacity="0.2"/>
      <stop offset="100%" stop-color="#ffffff" stop-opacity="0"/>
    </radialGradient>
  </defs>
  <rect width="600" height="600" fill="url(#g)"/>
  <rect width="600" height="600" fill="url(#glow)"/>
  <g fill="#ffffff" opacity="0.95">
    <path d="M300 200 C 270 165 220 165 200 195 C 175 235 215 285 300 360 C 385 285 425 235 400 195 C 380 165 330 165 300 200 Z"/>
  </g>
  <g fill="none" stroke="#ffffff" stroke-width="6" stroke-linecap="round" stroke-linejoin="round" opacity="0.95">
    <path d="M60 420 L160 420 L185 360 L220 460 L260 380 L290 440 L420 440 L450 410 L540 410"/>
  </g>
  <g fill="#ffffff" opacity="0.6">
    <circle cx="80" cy="120" r="6"/>
    <circle cx="120" cy="80" r="4"/>
    <circle cx="520" cy="100" r="6"/>
    <circle cx="480" cy="140" r="4"/>
    <circle cx="500" cy="500" r="5"/>
    <circle cx="100" cy="500" r="5"/>
  </g>
  <g fill="#ffffff" opacity="0.85">
    <rect x="290" y="230" width="20" height="60" rx="4"/>
    <rect x="270" y="250" width="60" height="20" rx="4"/>
  </g>
</svg>
