<svg xmlns="http://www.w3.org/2000/svg" viewBox="0 0 600 600">
  <defs>
    <linearGradient id="g" x1="0" y1="0" x2="1" y2="1">
      <stop offset="0%" stop-color="#f8bbd0"/>
      <stop offset="100%" stop-color="#c2185b"/>
    </linearGradient>
    <radialGradient id="glow" cx="0.7" cy="0.3" r="0.7">
      <stop offset="0%" stop-color="#ffffff" stop-opacity="0.22"/>
      <stop offset="100%" stop-color="#ffffff" stop-opacity="0"/>
    </radialGradient>
    <linearGradient id="lip" x1="0" y1="0" x2="0" y2="1">
      <stop offset="0%" stop-color="#ff5d8f"/>
      <stop offset="100%" stop-color="#c2185b"/>
    </linearGradient>
  </defs>
  <rect width="600" height="600" fill="url(#g)"/>
  <rect width="600" height="600" fill="url(#glow)"/>

  <g transform="translate(180 100) rotate(-15 60 200)">
    <rect x="40" y="0" width="60" height="30" rx="4" fill="#ffffff" opacity="0.95"/>
    <rect x="40" y="0" width="60" height="30" rx="4" fill="url(#lip)" opacity="0.5"/>
    <path d="M40 30 L100 30 L95 80 L45 80 Z" fill="url(#lip)"/>
    <rect x="35" y="80" width="70" height="35" rx="4" fill="#ffffff"/>
    <rect x="30" y="115" width="80" height="200" rx="6" fill="#3e2723"/>
    <rect x="30" y="115" width="80" height="200" rx="6" fill="#ffffff" opacity="0.06"/>
  </g>

  <g transform="translate(380 90) rotate(20 60 200)">
    <rect x="55" y="0" width="40" height="120" rx="20" fill="#ffffff"/>
    <path d="M40 120 L110 120 L100 160 L50 160 Z" fill="#5d4037"/>
    <rect x="50" y="160" width="50" height="160" rx="6" fill="#ffd54f"/>
    <rect x="50" y="160" width="50" height="160" rx="6" fill="#ffffff" opacity="0.15"/>
  </g>

  <g fill="#ffffff" opacity="0.85">
    <path d="M120 480 L128 504 L152 512 L128 520 L120 544 L112 520 L88 512 L112 504 Z"/>
    <path d="M460 460 L466 478 L484 484 L466 490 L460 508 L454 490 L436 484 L454 478 Z" opacity="0.75"/>
  </g>
  <g fill="#ffffff" opacity="0.5">
    <circle cx="80" cy="80" r="5"/>
    <circle cx="510" cy="120" r="6"/>
    <circle cx="500" cy="380" r="4"/>
    <circle cx="60" cy="350" r="4"/>
  </g>
</svg>
