<svg xmlns="http://www.w3.org/2000/svg" viewBox="0 0 600 600">
  <defs>
    <linearGradient id="g" x1="0" y1="0" x2="1" y2="1">
      <stop offset="0%" stop-color="#90a4ae"/>
      <stop offset="100%" stop-color="#37474f"/>
    </linearGradient>
    <radialGradient id="glow" cx="0.7" cy="0.3" r="0.7">
      <stop offset="0%" stop-color="#ffffff" stop-opacity="0.18"/>
      <stop offset="100%" stop-color="#ffffff" stop-opacity="0"/>
    </radialGradient>
    <radialGradient id="lens" cx="0.5" cy="0.5" r="0.6">
      <stop offset="0%" stop-color="#90a4ae"/>
      <stop offset="50%" stop-color="#37474f"/>
      <stop offset="100%" stop-color="#1c2025"/>
    </radialGradient>
    <radialGradient id="lensInner" cx="0.5" cy="0.5" r="0.6">
      <stop offset="0%" stop-color="#cfd8dc"/>
      <stop offset="60%" stop-color="#37474f"/>
      <stop offset="100%" stop-color="#000000"/>
    </radialGradient>
  </defs>
  <rect width="600" height="600" fill="url(#g)"/>
  <rect width="600" height="600" fill="url(#glow)"/>

  <g transform="translate(140 200)">
    <rect x="0" y="40" width="320" height="220" rx="20" fill="#263238"/>
    <rect x="0" y="40" width="320" height="220" rx="20" fill="#ffffff" opacity="0.05"/>
    <rect x="90" y="0" width="100" height="50" rx="8" fill="#263238"/>
    <rect x="240" y="60" width="50" height="30" rx="4" fill="#cfd8dc" opacity="0.9"/>
    <rect x="240" y="60" width="50" height="30" rx="4" fill="#ff385c" opacity="0.6"/>
    <circle cx="160" cy="150" r="80" fill="url(#lens)"/>
    <circle cx="160" cy="150" r="60" fill="url(#lensInner)"/>
    <circle cx="160" cy="150" r="36" fill="#000000"/>
    <circle cx="138" cy="128" r="12" fill="#ffffff" opacity="0.4"/>
    <circle cx="148" cy="138" r="5" fill="#ffffff" opacity="0.7"/>
  </g>

  <g fill="#ffffff" opacity="0.95">
    <path d="M100 100 L108 124 L132 132 L108 140 L100 164 L92 140 L68 132 L92 124 Z"/>
    <path d="M500 110 L506 128 L524 134 L506 140 L500 158 L494 140 L476 134 L494 128 Z" opacity="0.8"/>
    <path d="M510 470 L516 488 L534 494 L516 500 L510 518 L504 500 L486 494 L504 488 Z" opacity="0.75"/>
    <path d="M90 470 L96 488 L114 494 L96 500 L90 518 L84 500 L66 494 L84 488 Z" opacity="0.7"/>
  </g>
</svg>
