<svg xmlns="http://www.w3.org/2000/svg" viewBox="0 0 600 600">
  <defs>
    <linearGradient id="g" x1="0" y1="0" x2="1" y2="1">
      <stop offset="0%" stop-color="#ff5577"/>
      <stop offset="100%" stop-color="#d63d5f"/>
    </linearGradient>
    <radialGradient id="glow" cx="0.7" cy="0.3" r="0.7">
      <stop offset="0%" stop-color="#ffffff" stop-opacity="0.18"/>
      <stop offset="100%" stop-color="#ffffff" stop-opacity="0"/>
    </radialGradient>
  </defs>
  <rect width="600" height="600" fill="url(#g)"/>
  <rect width="600" height="600" fill="url(#glow)"/>
  <g transform="translate(180 80)" fill="none" stroke="#ffffff" stroke-width="6" stroke-linecap="round" stroke-linejoin="round" opacity="0.92">
    <path d="M120 60 Q60 80 50 180 Q42 260 70 320 Q90 360 130 380 L130 410 Q120 430 110 440 L160 440 Q200 440 230 410 L230 320 Q260 280 252 220 Q248 130 220 80 Q170 40 120 60 Z"/>
    <circle cx="160" cy="220" r="6" fill="#ffffff"/>
    <path d="M180 240 Q200 270 200 290 Q200 310 180 312"/>
    <path d="M150 340 Q175 360 200 340"/>
    <path d="M80 200 Q60 230 70 280" opacity="0.5"/>
  </g>
  <g transform="translate(440 100)" opacity="0.85">
    <circle r="22" fill="#ffffff" opacity="0.18"/>
    <path d="M-10 0 L10 0 M0 -10 L0 10" stroke="#ffffff" stroke-width="3" stroke-linecap="round"/>
  </g>
  <g transform="translate(470 200)" opacity="0.6">
    <circle r="6" fill="#ffffff"/>
  </g>
  <g transform="translate(110 460)" opacity="0.55">
    <circle r="4" fill="#ffffff"/>
  </g>
</svg>
